<mxfile host="app.diagrams.net" modified="2022-09-17T09:31:14.790Z" agent="5.0 (Windows NT 10.0; Win64; x64) AppleWebKit/537.36 (KHTML, like Gecko) Chrome/105.0.0.0 Safari/537.36" etag="8VLYZTlOjjbBAT_ViqI7" version="20.3.0" type="github">
  <diagram id="kgpKYQtTHZ0yAKxKKP6v" name="Page-1">
    <mxGraphModel dx="978" dy="575" grid="1" gridSize="10" guides="1" tooltips="1" connect="1" arrows="1" fold="1" page="1" pageScale="1" pageWidth="850" pageHeight="1100" math="0" shadow="0">
      <root>
        <mxCell id="0" />
        <mxCell id="1" parent="0" />
        <mxCell id="3nuBFxr9cyL0pnOWT2aG-1" value="FormMain" style="shape=umlLifeline;perimeter=lifelinePerimeter;container=1;collapsible=0;recursiveResize=0;rounded=0;shadow=0;strokeWidth=1;fontStyle=4" parent="1" vertex="1">
          <mxGeometry x="120" y="80" width="100" height="300" as="geometry" />
        </mxCell>
        <mxCell id="3nuBFxr9cyL0pnOWT2aG-2" value="" style="points=[];perimeter=orthogonalPerimeter;rounded=0;shadow=0;strokeWidth=1;" parent="3nuBFxr9cyL0pnOWT2aG-1" vertex="1">
          <mxGeometry x="45" y="70" width="10" height="170" as="geometry" />
        </mxCell>
        <mxCell id="3nuBFxr9cyL0pnOWT2aG-3" value="choose post type from list&#xa;and than press sumbit" style="verticalAlign=bottom;startArrow=oval;endArrow=block;startSize=8;shadow=0;strokeWidth=1;" parent="3nuBFxr9cyL0pnOWT2aG-1" target="3nuBFxr9cyL0pnOWT2aG-2" edge="1">
          <mxGeometry x="-0.04" y="-40" relative="1" as="geometry">
            <mxPoint x="-80" y="70" as="sourcePoint" />
            <mxPoint as="offset" />
          </mxGeometry>
        </mxCell>
        <mxCell id="3nuBFxr9cyL0pnOWT2aG-5" value="CreatePost" style="shape=umlLifeline;perimeter=lifelinePerimeter;container=1;collapsible=0;recursiveResize=0;rounded=0;shadow=0;strokeWidth=1;fontStyle=4" parent="1" vertex="1">
          <mxGeometry x="281" y="80" width="100" height="300" as="geometry" />
        </mxCell>
        <mxCell id="3nuBFxr9cyL0pnOWT2aG-6" value="" style="points=[];perimeter=orthogonalPerimeter;rounded=0;shadow=0;strokeWidth=1;" parent="3nuBFxr9cyL0pnOWT2aG-5" vertex="1">
          <mxGeometry x="45" y="80" width="10" height="160" as="geometry" />
        </mxCell>
        <mxCell id="G_MbW8xEzVyiJUdyMgcI-9" value="create new Post" style="verticalAlign=bottom;startArrow=oval;endArrow=block;startSize=8;shadow=0;strokeWidth=1;" parent="3nuBFxr9cyL0pnOWT2aG-5" edge="1">
          <mxGeometry x="0.2" y="-20" relative="1" as="geometry">
            <mxPoint x="55" y="80" as="sourcePoint" />
            <mxPoint x="180" y="80" as="targetPoint" />
            <mxPoint x="-1" as="offset" />
          </mxGeometry>
        </mxCell>
        <mxCell id="3nuBFxr9cyL0pnOWT2aG-8" value="postTypeComboBox_&#xa;SelectedIndexChanged()" style="verticalAlign=bottom;endArrow=block;shadow=0;strokeWidth=1;" parent="1" source="3nuBFxr9cyL0pnOWT2aG-2" edge="1">
          <mxGeometry x="-0.0323" y="-30" relative="1" as="geometry">
            <mxPoint x="275" y="160" as="sourcePoint" />
            <mxPoint x="330" y="160" as="targetPoint" />
            <mxPoint x="1" as="offset" />
          </mxGeometry>
        </mxCell>
        <mxCell id="G_MbW8xEzVyiJUdyMgcI-2" value="FacebookWrapper" style="shape=umlLifeline;perimeter=lifelinePerimeter;container=1;collapsible=0;recursiveResize=0;rounded=0;shadow=0;strokeWidth=1;fontStyle=4" parent="1" vertex="1">
          <mxGeometry x="600" y="80" width="100" height="300" as="geometry" />
        </mxCell>
        <mxCell id="G_MbW8xEzVyiJUdyMgcI-3" value="" style="points=[];perimeter=orthogonalPerimeter;rounded=0;shadow=0;strokeWidth=1;" parent="G_MbW8xEzVyiJUdyMgcI-2" vertex="1">
          <mxGeometry x="45" y="80" width="10" height="160" as="geometry" />
        </mxCell>
        <mxCell id="G_MbW8xEzVyiJUdyMgcI-6" value="CreateLinkPost/&#xa;CreateTextPost/&#xa;CreateImagepost" style="shape=umlLifeline;perimeter=lifelinePerimeter;container=1;collapsible=0;recursiveResize=0;rounded=0;shadow=0;strokeWidth=1;fontStyle=4" parent="1" vertex="1">
          <mxGeometry x="438" y="80" width="100" height="310" as="geometry" />
        </mxCell>
        <mxCell id="G_MbW8xEzVyiJUdyMgcI-7" value="" style="points=[];perimeter=orthogonalPerimeter;rounded=0;shadow=0;strokeWidth=1;" parent="G_MbW8xEzVyiJUdyMgcI-6" vertex="1">
          <mxGeometry x="45" y="80" width="10" height="140" as="geometry" />
        </mxCell>
        <mxCell id="G_MbW8xEzVyiJUdyMgcI-8" value="Actor" style="shape=umlActor;verticalLabelPosition=bottom;verticalAlign=top;html=1;outlineConnect=0;" parent="1" vertex="1">
          <mxGeometry y="80" width="30" height="60" as="geometry" />
        </mxCell>
        <mxCell id="G_MbW8xEzVyiJUdyMgcI-16" value="post()" style="verticalAlign=bottom;endArrow=block;shadow=0;strokeWidth=1;" parent="1" edge="1">
          <mxGeometry x="-0.0323" y="-30" relative="1" as="geometry">
            <mxPoint x="480" y="160" as="sourcePoint" />
            <mxPoint x="635" y="160" as="targetPoint" />
            <mxPoint x="1" as="offset" />
          </mxGeometry>
        </mxCell>
        <mxCell id="G_MbW8xEzVyiJUdyMgcI-17" value="return a user" style="html=1;verticalAlign=bottom;endArrow=open;dashed=1;endSize=8;rounded=0;" parent="1" edge="1">
          <mxGeometry x="0.0462" y="26" relative="1" as="geometry">
            <mxPoint x="640" y="260" as="sourcePoint" />
            <mxPoint x="500" y="279" as="targetPoint" />
            <mxPoint as="offset" />
          </mxGeometry>
        </mxCell>
        <mxCell id="tJ_WuU6WTOqkpa28b57J-1" value="FormMain" style="shape=umlLifeline;perimeter=lifelinePerimeter;container=1;collapsible=0;recursiveResize=0;rounded=0;shadow=0;strokeWidth=1;fontStyle=4" vertex="1" parent="1">
          <mxGeometry x="150" y="570" width="100" height="300" as="geometry" />
        </mxCell>
        <mxCell id="tJ_WuU6WTOqkpa28b57J-2" value="" style="points=[];perimeter=orthogonalPerimeter;rounded=0;shadow=0;strokeWidth=1;" vertex="1" parent="tJ_WuU6WTOqkpa28b57J-1">
          <mxGeometry x="45" y="70" width="10" height="170" as="geometry" />
        </mxCell>
        <mxCell id="tJ_WuU6WTOqkpa28b57J-3" value="press login" style="verticalAlign=bottom;startArrow=oval;endArrow=block;startSize=8;shadow=0;strokeWidth=1;" edge="1" parent="tJ_WuU6WTOqkpa28b57J-1">
          <mxGeometry x="-0.04" y="-30" relative="1" as="geometry">
            <mxPoint x="-80" y="78" as="sourcePoint" />
            <mxPoint as="offset" />
            <mxPoint x="45" y="78" as="targetPoint" />
          </mxGeometry>
        </mxCell>
        <mxCell id="tJ_WuU6WTOqkpa28b57J-6" value="CreatePost/&#xa;FetchLogic" style="shape=umlLifeline;perimeter=lifelinePerimeter;container=1;collapsible=0;recursiveResize=0;rounded=0;shadow=0;strokeWidth=1;fontStyle=4" vertex="1" parent="1">
          <mxGeometry x="305" y="570" width="100" height="300" as="geometry" />
        </mxCell>
        <mxCell id="tJ_WuU6WTOqkpa28b57J-7" value="" style="points=[];perimeter=orthogonalPerimeter;rounded=0;shadow=0;strokeWidth=1;" vertex="1" parent="tJ_WuU6WTOqkpa28b57J-6">
          <mxGeometry x="45" y="80" width="10" height="160" as="geometry" />
        </mxCell>
        <mxCell id="tJ_WuU6WTOqkpa28b57J-8" value="create new User" style="verticalAlign=bottom;startArrow=oval;endArrow=block;startSize=8;shadow=0;strokeWidth=1;" edge="1" parent="tJ_WuU6WTOqkpa28b57J-6">
          <mxGeometry x="0.2" y="-20" relative="1" as="geometry">
            <mxPoint x="60" y="80" as="sourcePoint" />
            <mxPoint x="185" y="80" as="targetPoint" />
            <mxPoint x="-1" as="offset" />
          </mxGeometry>
        </mxCell>
        <mxCell id="tJ_WuU6WTOqkpa28b57J-9" value="FacebookWrapper" style="shape=umlLifeline;perimeter=lifelinePerimeter;container=1;collapsible=0;recursiveResize=0;rounded=0;shadow=0;strokeWidth=1;fontStyle=4" vertex="1" parent="1">
          <mxGeometry x="446" y="570" width="100" height="300" as="geometry" />
        </mxCell>
        <mxCell id="tJ_WuU6WTOqkpa28b57J-10" value="" style="points=[];perimeter=orthogonalPerimeter;rounded=0;shadow=0;strokeWidth=1;" vertex="1" parent="tJ_WuU6WTOqkpa28b57J-9">
          <mxGeometry x="45" y="80" width="10" height="160" as="geometry" />
        </mxCell>
        <mxCell id="tJ_WuU6WTOqkpa28b57J-13" value="Actor" style="shape=umlActor;verticalLabelPosition=bottom;verticalAlign=top;html=1;outlineConnect=0;" vertex="1" parent="1">
          <mxGeometry x="30" y="570" width="30" height="60" as="geometry" />
        </mxCell>
        <mxCell id="tJ_WuU6WTOqkpa28b57J-5" value="any method" style="verticalAlign=bottom;endArrow=block;shadow=0;strokeWidth=1;" edge="1" parent="1">
          <mxGeometry x="-0.0323" y="-30" relative="1" as="geometry">
            <mxPoint x="195" y="650" as="sourcePoint" />
            <mxPoint x="350" y="650" as="targetPoint" />
            <mxPoint x="1" as="offset" />
          </mxGeometry>
        </mxCell>
      </root>
    </mxGraphModel>
  </diagram>
</mxfile>
